<svg height="512" viewBox="0 0 60 60" width="512" xmlns="http://www.w3.org/2000/svg"><g id="Page-1" fill="none" fill-rule="evenodd"><g id="059---Mobile-Parking-Ticket"><g fill-rule="nonzero"><path id="Shape" d="m47 45v6c0 1.6568542-1.3431458 3-3 3h-28c-1.6568542 0-3-1.3431458-3-3v-6z" fill="#00a9f8"/><path id="Shape" d="m44 45v6c0 1.6568542-1.3431458 3-3 3h3c1.6568542 0 3-1.3431458 3-3v-6z" fill="#0078bf"/><path id="Shape" d="m47 51v5c0 1.6568542-1.3431458 3-3 3h-28c-1.6568542 0-3-1.3431458-3-3v-5c0 1.6568542 1.3431458 3 3 3h28c1.6568542 0 3-1.3431458 3-3z" fill="#9d9d9d"/><path id="Shape" d="m44 54v2c0 1.6568542-1.3431458 3-3 3h3c1.6568542 0 3-1.3431458 3-3v-5c0 1.6568542-1.3431458 3-3 3z" fill="#707070"/><path id="Shape" d="m47 4v9h-34v-9c0-1.65685425 1.3431458-3 3-3h4l2.86 3.05c.5663757.60708315 1.3597411.95123705 2.19.95h9.9c.8302589.00123705 1.6236243-.34291685 2.19-.95l2.86-3.05h4c1.6568542 0 3 1.34314575 3 3z" fill="#00a9f8"/><path id="Shape" d="m44 1h-3c1.6568542 0 3 1.34314575 3 3v9h3v-9c0-1.65685425-1.3431458-3-3-3z" fill="#0078bf"/><path id="Shape" d="m40 1-2.86 3.05c-.5663757.60708315-1.3597411.95123705-2.19.95h-9.9c-.8302589.00123705-1.6236243-.34291685-2.19-.95l-2.86-3.05z" fill="#9d9d9d"/><path id="Shape" d="m37 1-2.86 3.05c-.5663757.60708315-1.3597411.95123705-2.19.95000332l3-.00000332c.8302589.00123705 1.6236243-.34291685 2.19-.95l2.86-3.05z" fill="#707070"/><path id="Shape" d="m54 29c.0039137 2.1877913 1.4237169 4.1213126 3.51 4.78.866842.2334351 1.4745241 1.0124102 1.49 1.91v6.31c0 1.6568542-1.3431458 3-3 3h-52c-1.65685425 0-3-1.3431458-3-3v-26c0-1.6568542 1.34314575-3 3-3h52c1.6568542 0 3 1.3431458 3 3v6.31c-.0154759.8975898-.623158 1.6765649-1.49 1.91-2.0862831.6586874-3.5060863 2.5922087-3.51 4.78z" fill="#ffda00"/><path id="Shape" d="m57.51 24.22c.866842-.2334351 1.4745241-1.0124102 1.49-1.91v-6.31c0-1.6568542-1.3431458-3-3-3h-3c1.6568542 0 3 1.3431458 3 3v6.31c-.0154759.8975898-.623158 1.6765649-1.49 1.91-2.0884085.6556059-3.5094334 2.5911032-3.5094334 4.78s1.4210249 4.1243941 3.5094334 4.78c.866842.2334351 1.4745241 1.0124102 1.49 1.91v6.31c0 1.6568542-1.3431458 3-3 3h3c1.6568542 0 3-1.3431458 3-3v-6.31c-.0154759-.8975898-.623158-1.6765649-1.49-1.91-2.0884085-.6556059-3.5094334-2.5911032-3.5094334-4.78s1.4210249-4.1243941 3.5094334-4.78z" fill="#ffbf00"/><path id="Shape" d="m35 25h-12v-7.0000012l6.84.0000012c.7194428-.0007962 1.383876.3848806 1.74 1.01z" fill="#00a9f8"/><path id="Shape" d="m31.58 19.01c-.356124-.6251194-1.0205572-1.0107962-1.74-1.01l-3-.0000012c.7194428-.000795 1.383876.3848818 1.74 1.0100012l3.42 5.99h3z" fill="#0078bf"/><path id="Shape" d="m23 18v7h-12l2.48-5.79c.3189876-.7326353 1.0409376-1.2073958 1.84-1.21z" fill="#00a9f8"/><path id="Shape" d="m23 25v10h-6.13c-.4601182-1.7604403-2.0504234-2.9885159-3.87-2.9885159s-3.40988183 1.2280756-3.87 2.9885159h-2.13c-.55228475 0-1-.4477153-1-1v-7c.0032948-1.1032019.89679813-1.9967052 2-2z" fill="#f7422b"/><path id="Rectangle-path" d="m20 25h3v10h-3z" fill="#ca1c12"/><path id="Shape" d="m44 29v5c0 .5522847-.4477153 1-1 1h-2.13c-.4601182-1.7604403-2.0504234-2.9885159-3.87-2.9885159s-3.4098818 1.2280756-3.87 2.9885159h-10.13v-10h16v2c.0032948 1.1032019.8967981 1.9967052 2 2z" fill="#f7422b"/><path id="Shape" d="m39 27v-2h-3v2c.0032948 1.1032019.8967981 1.9967052 2 2h3c-1.1032019-.0032948-1.9967052-.8967981-2-2z" fill="#ca1c12"/><path id="Shape" d="m41 29v5c-.0030757.2386157-.0930232.4679284-.253.645.047102.1161302.088157.2346223.123.355h2.13c.5522847 0 1-.4477153 1-1v-5z" fill="#ca1c12"/><g fill="#364750"><path id="Shape" d="m17 36c0 2.209139-1.790861 4-4 4s-4-1.790861-4-4c-.00305328-.3377372.04069588-.6742693.13-1 .46011817-1.7604403 2.0504234-2.9885159 3.87-2.9885159s3.4098818 1.2280756 3.87 2.9885159c.0893041.3257307.1330533.6622628.13 1z"/><path id="Shape" d="m41 36c0 2.209139-1.790861 4-4 4s-4-1.790861-4-4c-.0030533-.3377372.0406959-.6742693.13-1 .4601182-1.7604403 2.0504234-2.9885159 3.87-2.9885159s3.4098818 1.2280756 3.87 2.9885159c.0893041.3257307.1330533.6622628.13 1z"/></g></g><path id="Shape" d="m30 29h-2" stroke="#000" stroke-linecap="round" stroke-linejoin="round" stroke-width="2"/><path id="Shape" d="m19 29h-2" stroke="#000" stroke-linecap="round" stroke-linejoin="round" stroke-width="2"/><path id="Shape" d="m17 22 2 3" stroke="#000" stroke-linecap="round" stroke-linejoin="round" stroke-width="2"/><path id="Shape" d="m27 22 2 3" stroke="#000" stroke-linecap="round" stroke-linejoin="round" stroke-width="2"/><path id="Shape" d="m44 28v1h-3c-1.1032019-.0032948-1.9967052-.8967981-2-2v-2h2c1.6568542 0 3 1.3431458 3 3z" fill="#ffda00" fill-rule="nonzero"/><path id="Shape" d="m43 40h-36" stroke="#000" stroke-linecap="round" stroke-linejoin="round" stroke-width="2"/><g fill="#000" fill-rule="nonzero"><path id="Shape" d="m56 12h-8v-8c0-2.209139-1.790861-4-4-4h-28c-2.209139 0-4 1.790861-4 4v8h-8c-2.209139 0-4 1.790861-4 4v26c0 2.209139 1.790861 4 4 4h8v10c0 2.209139 1.790861 4 4 4h28c2.209139 0 4-1.790861 4-4v-10h8c2.209139 0 4-1.790861 4-4v-6.308c-.019142-1.3343916-.9074183-2.4998231-2.189-2.872-1.6732767-.5196896-2.8135768-2.0678778-2.8135768-3.82s1.1403001-3.3003104 2.8135768-3.82c1.2815817-.3721769 2.169858-1.5376084 2.189-2.872v-6.308c0-2.209139-1.790861-4-4-4zm-18.309-10-1.283 1.368c-.3778598.40298537-.9055734.63173367-1.458.632h-9.9c-.5526257-.00070589-1.0804819-.22935917-1.459-.632l-1.282-1.368zm-23.691 2c0-1.1045695.8954305-2 2-2h3.567l2.565 2.735c.7567936.80574999 1.8125738 1.2634477 2.918 1.265h9.9c1.1055502-.00095651 2.1615565-.45875227 2.918-1.265l2.565-2.735h3.567c1.1045695 0 2 .8954305 2 2v8h-32zm30 54h-28c-1.1045695 0-2-.8954305-2-2v-1.556c.6053465.3599241 1.2957468.5518554 2 .556h28c.7042532-.0041446 1.3946535-.1960759 2-.556v1.556c0 1.1045695-.8954305 2-2 2zm2-7c0 1.1045695-.8954305 2-2 2h-28c-1.1045695 0-2-.8954305-2-2v-5h32zm12-28.692c-.0186661.4588691-.3374768.8505624-.783.962-2.509915.7795344-4.2203652 3.1018167-4.2203652 5.73s1.7104502 4.9504656 4.2203652 5.73c.4455232.1114376.7643339.5031309.783.962v6.308c0 1.1045695-.8954305 2-2 2h-6v-3c0-.5522847-.4477153-1-1-1s-1 .4477153-1 1v3h-44c-1.1045695 0-2-.8954305-2-2v-26c0-1.1045695.8954305-2 2-2h44v3c0 .5522847.4477153 1 1 1s1-.4477153 1-1v-3h6c1.1045695 0 2 .8954305 2 2z"/><path id="Shape" d="m49 35c-.5522847 0-1 .4477153-1 1v1c0 .5522847.4477153 1 1 1s1-.4477153 1-1v-1c0-.5522847-.4477153-1-1-1z"/><path id="Shape" d="m49 30c-.5522847 0-1 .4477153-1 1v1c0 .5522847.4477153 1 1 1s1-.4477153 1-1v-1c0-.5522847-.4477153-1-1-1z"/><path id="Shape" d="m49 25c-.5522847 0-1 .4477153-1 1v1c0 .5522847.4477153 1 1 1s1-.4477153 1-1v-1c0-.5522847-.4477153-1-1-1z"/><path id="Shape" d="m49 20c-.5522847 0-1 .4477153-1 1v1c0 .5522847.4477153 1 1 1s1-.4477153 1-1v-1c0-.5522847-.4477153-1-1-1z"/><path id="Shape" d="m41 24h-5.419l-3.133-5.486c-.5357698-.9350021-1.530375-1.5123918-2.608-1.514h-14.52c-1.1987301.0027961-2.2817723.7159233-2.758 1.816l-2.221 5.184h-2.341c-1.65685425 0-3 1.3431458-3 3v7c0 1.1045695.8954305 2 2 2h1c.00367682 1.0854693.36419333 2.1396111 1.026 3h-2.026c-.55228475 0-1 .4477153-1 1s.44771525 1 1 1h36c.5522847 0 1-.4477153 1-1s-.4477153-1-1-1h-2.026c.6618067-.8603889 1.0223232-1.9145307 1.026-3h1c1.1045695 0 2-.8954305 2-2v-6c0-2.209139-1.790861-4-4-4zm2 4h-2c-.5522847 0-1-.4477153-1-1v-1h1c1.1045695 0 2 .8954305 2 2zm-12.288-8.494 2.566 4.494h-3.743l-1.7-2.555c-.306518-.4595009-.9274991-.583518-1.387-.277-.4595009.3065181-.583518.9274991-.277 1.387l.961 1.445h-3.132v-5.0000184l5.84.0000184c.3609842-.0021887.6947797.1915045.872.506zm-16.312.105c.1591236-.3674555.5195919-.6068534.92-.611h6.68v5h-2.465l-1.7-2.555c-.1982824-.297245-.5400812-.4661282-.8966441-.4430331s-.6737195.2346599-.832.555c-.1582805.32034-.1336383.7007881.0646441.9980331l.961 1.445h-4.616zm-7.4 14.389v-7c0-.5522847.44771525-1 1-1h14v8h-4.424c-.7922291-1.8216773-2.5895119-2.9999437-4.576-2.9999437s-3.7837709 1.1782664-4.576 2.9999437zm26.026 5h-16.052c.6618067-.8603889 1.0223232-1.9145307 1.026-3h14c.0036768 1.0854693.3641933 2.1396111 1.026 3zm-23.026-3c0-1.6568542 1.3431458-3 3-3s3 1.3431458 3 3-1.3431458 3-3 3-3-1.3431458-3-3zm24 0c0-1.6568542 1.3431458-3 3-3s3 1.3431458 3 3-1.3431458 3-3 3-3-1.3431458-3-3zm7.576-2c-.7922291-1.8216773-2.5895119-2.9999437-4.576-2.9999437s-3.7837709 1.1782664-4.576 2.9999437h-8.424v-8h14v1c0 1.6568542 1.3431458 3 3 3h2v4z"/><path id="Shape" d="m30 28h-2c-.5522847 0-1 .4477153-1 1s.4477153 1 1 1h2c.5522847 0 1-.4477153 1-1s-.4477153-1-1-1z"/><path id="Shape" d="m17 30h2c.5522847 0 1-.4477153 1-1s-.4477153-1-1-1h-2c-.5522847 0-1 .4477153-1 1s.4477153 1 1 1z"/><circle id="Oval" cx="13" cy="36" r="1"/><circle id="Oval" cx="37" cy="36" r="1"/></g></g></g></svg>