<svg height="512pt" viewBox="0 -35 512.00002 512" width="512pt" xmlns="http://www.w3.org/2000/svg"><path d="m157.046875 387.613281c0 25.316407-20.527344 45.84375-45.84375 45.84375-25.320313 0-45.84375-20.527343-45.84375-45.84375 0-25.320312 20.523437-45.84375 45.84375-45.84375 25.316406 0 45.84375 20.523438 45.84375 45.84375zm0 0" fill="#3c3f4d"/><path d="m442.953125 387.613281c0 25.316407-20.523437 45.84375-45.84375 45.84375s-45.84375-20.527343-45.84375-45.84375c0-25.320312 20.523437-45.84375 45.84375-45.84375s45.84375 20.523438 45.84375 45.84375zm0 0" fill="#3c3f4d"/><path d="m292.910156 285.269531h-285.304687v102.34375h28.1875c0-41.648437 33.761719-75.410156 75.410156-75.410156 41.644531 0 75.40625 33.761719 75.40625 75.410156h106.296875v-102.34375zm0 0" fill="#e6e6e6"/><path d="m292.910156 285.269531v-182.03125h133.386719c19.351563 0 36.707031 11.910157 43.667969 29.960938l34.429687 89.265625v165.148437h-31.875c0-41.648437-33.761719-75.410156-75.410156-75.410156s-75.40625 33.761719-75.40625 75.410156h-28.792969" fill="#2c92bf"/><path d="m111.203125 407.308594c-10.863281 0-19.699219-8.835938-19.699219-19.695313 0-10.863281 8.835938-19.699219 19.699219-19.699219 10.859375 0 19.695313 8.835938 19.695313 19.699219 0 10.859375-8.835938 19.695313-19.695313 19.695313zm0 0" fill="#e6e6e6"/><path d="m397.109375 407.308594c-10.863281 0-19.699219-8.835938-19.699219-19.695313 0-10.863281 8.835938-19.699219 19.699219-19.699219 10.859375 0 19.695313 8.835938 19.695313 19.699219 0 10.859375-8.835938 19.695313-19.695313 19.695313zm0 0" fill="#e6e6e6"/><path d="m470.773438 222.464844h-146.484376v-87.851563h102.003907c6.335937 0 12.121093 3.972657 14.402343 9.882813zm0 0" fill="#c4e2f2"/><path d="m33.085938 79.542969h228.441406v205.726562h-228.441406zm0 0" fill="#ffe14d"/><path d="m33.085938 138.863281h228.441406v23.628907h-228.441406zm0 0" fill="#ffbe1d"/><g fill="#ff491f"><path d="m175.707031 79.542969c0-15.683594-12.714843-28.394531-28.398437-28.394531s-28.398438 12.710937-28.398438 28.394531"/><path d="m82.9375 7.601562c19.867188 0 35.972656 16.105469 35.972656 35.972657v35.96875h-35.972656c-19.863281 0-35.96875-16.105469-35.96875-35.96875 0-19.867188 16.105469-35.972657 35.96875-35.972657zm0 0"/><path d="m211.675781 7.601562c-19.867187 0-35.96875 16.105469-35.96875 35.972657v35.96875h35.96875c19.867188 0 35.972657-16.105469 35.972657-35.96875 0-19.867188-16.105469-35.972657-35.972657-35.972657zm0 0"/><path d="m118.910156 79.542969h56.796875v205.726562h-56.796875zm0 0"/></g><path d="m111.203125 334.164062c-29.472656 0-53.449219 23.976563-53.449219 53.449219 0 29.46875 23.976563 53.445313 53.449219 53.445313s53.445313-23.976563 53.445313-53.445313c0-29.472656-23.976563-53.449219-53.445313-53.449219zm0 91.6875c-21.085937 0-38.242187-17.15625-38.242187-38.238281 0-21.085937 17.15625-38.242187 38.242187-38.242187s38.238281 17.15625 38.238281 38.242187c0 21.082031-17.152344 38.238281-38.238281 38.238281zm0 0"/><path d="m111.203125 360.3125c-15.054687 0-27.304687 12.246094-27.304687 27.300781 0 15.054688 12.25 27.300781 27.304687 27.300781 15.050781 0 27.300781-12.25 27.300781-27.300781-.003906-15.054687-12.25-27.300781-27.300781-27.300781zm0 39.390625c-6.671875 0-12.09375-5.421875-12.09375-12.089844s5.421875-12.09375 12.09375-12.09375c6.667969 0 12.089844 5.425781 12.089844 12.09375s-5.421875 12.089844-12.089844 12.089844zm0 0"/><path d="m511.488281 219.726562-34.429687-89.261718c-8.035156-20.832032-28.433594-34.828125-50.761719-34.828125h-133.390625c-4.199219 0-7.601562 3.402343-7.601562 7.601562v174.429688h-16.171876v-138.6875c0-.039063.003907-.078125.003907-.117188 0-.039062-.003907-.078125-.003907-.117187v-59.199219c0-4.199219-3.402343-7.605469-7.605468-7.605469h-16.816406c6.558593-7.628906 10.539062-17.539062 10.539062-28.367187 0-24.027344-19.546875-43.574219-43.574219-43.574219-24.027343 0-43.574219 19.546875-43.574219 43.574219v6.609375c-5.878906-4.171875-13.054687-6.636719-20.796874-6.636719-7.742188 0-14.914063 2.464844-20.792969 6.636719v-6.609375c0-24.027344-19.546875-43.574219-43.574219-43.574219s-43.574219 19.546875-43.574219 43.574219c0 10.828125 3.976563 20.738281 10.539063 28.367187h-16.816406c-4.199219 0-7.605469 3.402344-7.605469 7.601563v198.125h-17.875c-4.203125 0-7.605469 3.402343-7.605469 7.601562v102.34375c0 4.199219 3.402344 7.601563 7.605469 7.601563h28.1875c4.199219 0 7.601562-3.402344 7.601562-7.601563 0-37.390625 30.417969-67.808593 67.808594-67.808593 37.386719 0 67.804687 30.417968 67.804687 67.808593 0 4.199219 3.402344 7.601563 7.601563 7.601563h135.089844c4.203125 0 7.605469-3.402344 7.605469-7.601563 0-37.390625 30.417968-67.808593 67.804687-67.808593 14.558594 0 28.4375 4.546874 40.125 13.140624 3.382813 2.488282 8.144531 1.765626 10.628906-1.621093 2.488281-3.382813 1.765625-8.140625-1.621093-10.628907-14.316407-10.53125-31.308594-16.097656-49.132813-16.097656-43.214844 0-78.816406 33.183594-82.667969 75.410156h-13.929687v-269.164062h125.785156c16.085937 0 30.785156 10.085938 36.574219 25.09375l33.921875 87.941406v156.128906h-17.011719c-1.324219-14.640624-6.46875-28.546874-15.078125-40.597656-2.441406-3.417968-7.191406-4.207031-10.609375-1.769531-3.417969 2.441406-4.207031 7.191406-1.765625 10.609375 8.234375 11.527344 12.585937 25.140625 12.585937 39.359375 0 4.199219 3.40625 7.605469 7.605469 7.605469h31.875c4.203125 0 7.605469-3.40625 7.605469-7.605469v-165.148437c0-.933594-.171875-1.859376-.511719-2.734376zm-328.179687-73.257812h70.617187v131.199219h-70.617187zm70.617187-15.210938h-70.617187v-44.109374h70.617187zm-70.617187-87.683593c0-15.640625 12.726562-28.367188 28.367187-28.367188s28.367188 12.726563 28.367188 28.367188-12.726563 28.367187-28.367188 28.367187h-28.367187zm-36 15.175781c8.78125 0 16.289062 5.480469 19.332031 13.191406h-38.667969c3.046875-7.710937 10.554688-13.191406 19.335938-13.191406zm-92.738282-15.175781c0-15.640625 12.726563-28.367188 28.367188-28.367188s28.367188 12.726563 28.367188 28.367188v28.367187h-28.367188c-15.640625 0-28.367188-12.726562-28.367188-28.367187zm56.734376 43.574219v44.109374h-70.617188v-44.109374zm-70.617188 59.320312h70.617188v41.015625c0 4.203125 3.40625 7.605469 7.605468 7.605469 4.199219 0 7.605469-3.402344 7.605469-7.605469v-100.335937h41.585937v190.519531h-41.585937v-64.03125c0-4.203125-3.40625-7.605469-7.605469-7.605469-4.199218 0-7.605468 3.402344-7.605468 7.605469v64.03125h-70.617188zm70.515625 158.128906c-43.210937 0-78.820313 33.183594-82.667969 75.410156h-13.328125v-87.132812h270.097657v87.132812h-91.4375c-3.847657-42.226562-39.453126-75.410156-82.664063-75.410156zm0 0"/><path d="m477.042969 226.769531c1.417969-2.070312 1.726562-4.699219.824219-7.039062l-30.078126-77.972657c-3.40625-8.820312-12.042968-14.75-21.496093-14.75h-102.003907c-4.199218 0-7.605468 3.40625-7.605468 7.605469v87.855469c0 4.199219 3.40625 7.601562 7.605468 7.601562h146.484376c2.507812 0 4.851562-1.234374 6.269531-3.300781zm-145.152344-11.90625v-72.648437h94.402344c3.210937 0 6.148437 2.019531 7.308593 5.019531l26.089844 67.628906zm0 0"/><path d="m397.109375 334.164062c-29.472656 0-53.449219 23.976563-53.449219 53.449219 0 29.46875 23.976563 53.445313 53.449219 53.445313s53.449219-23.976563 53.449219-53.445313c0-29.472656-23.976563-53.449219-53.449219-53.449219zm0 91.6875c-21.085937 0-38.238281-17.15625-38.238281-38.238281 0-21.085937 17.152344-38.242187 38.238281-38.242187s38.242187 17.15625 38.242187 38.242187c-.003906 21.082031-17.15625 38.238281-38.242187 38.238281zm0 0"/><path d="m397.109375 360.3125c-15.054687 0-27.300781 12.246094-27.300781 27.300781 0 15.054688 12.246094 27.300781 27.300781 27.300781s27.300781-12.25 27.300781-27.300781c0-15.054687-12.246094-27.300781-27.300781-27.300781zm0 39.390625c-6.667969 0-12.09375-5.421875-12.09375-12.089844s5.425781-12.09375 12.09375-12.09375 12.09375 5.425781 12.09375 12.09375-5.425781 12.089844-12.09375 12.089844zm0 0"/><path d="m263.886719 315.503906h-53.339844c-4.199219 0-7.601563 3.402344-7.601563 7.601563s3.402344 7.605469 7.601563 7.605469h53.339844c4.199219 0 7.601562-3.40625 7.601562-7.605469s-3.402343-7.601563-7.601562-7.601563zm0 0"/><path d="m263.886719 342.171875h-53.339844c-4.199219 0-7.601563 3.402344-7.601563 7.601563 0 4.199218 3.402344 7.605468 7.601563 7.605468h53.339844c4.199219 0 7.601562-3.40625 7.601562-7.605468 0-4.199219-3.402343-7.601563-7.601562-7.601563zm0 0"/><path d="m324.289062 244.722656c-4.203124 0-7.605468 3.40625-7.605468 7.605469s3.402344 7.601563 7.605468 7.601563h32.152344c4.199219 0 7.601563-3.402344 7.601563-7.601563s-3.402344-7.605469-7.601563-7.605469zm0 0"/></svg>